HIERARCHY
ROOT Hips
{
  OFFSET 0.0273292 -0.436096 0.279869
  CHANNELS 6 Xposition Yposition Zposition Zrotation Xrotation Yrotation
  JOINT LHipJoint
  {
    OFFSET 0 0 0
    CHANNELS 6 Xposition Yposition Zposition Zrotation Xrotation Yrotation
    JOINT LeftUpLeg
    {
      OFFSET 1.36306 -1.79463 0
      CHANNELS 6 Xposition Yposition Zposition Zrotation Xrotation Yrotation
      JOINT LeftLeg
      {
        OFFSET 2.44807 -6.72613 0.000295034
        CHANNELS 6 Xposition Yposition Zposition Zrotation Xrotation Yrotation
        JOINT LeftFoot
        {
          OFFSET 2.5622 -7.03959 3.59965e-05
          CHANNELS 6 Xposition Yposition Zposition Zrotation Xrotation Yrotation
          JOINT LeftToeBase
          {
            OFFSET 0.15764 -0.43311 2.32255
            CHANNELS 6 Xposition Yposition Zposition Zrotation Xrotation Yrotation
            End Site
            {
              OFFSET 0 0 0
            }
          }
        }
      }
    }
  }
  JOINT RHipJoint
  {
    OFFSET 0 0 0
    CHANNELS 6 Xposition Yposition Zposition Zrotation Xrotation Yrotation
    JOINT RightUpLeg
    {
      OFFSET -1.30552 -1.79463 0
      CHANNELS 6 Xposition Yposition Zposition Zrotation Xrotation Yrotation
      JOINT RightLeg
      {
        OFFSET -2.54234 -6.98562 -0.000396375
        CHANNELS 6 Xposition Yposition Zposition Zrotation Xrotation Yrotation
        JOINT RightFoot
        {
          OFFSET -2.56826 -7.05623 -4.47982e-05
          CHANNELS 6 Xposition Yposition Zposition Zrotation Xrotation Yrotation
          JOINT RightToeBase
          {
            OFFSET -0.16473 -0.45259 2.36315
            CHANNELS 6 Xposition Yposition Zposition Zrotation Xrotation Yrotation
            End Site
            {
              OFFSET 0 0 0
            }
          }
        }
      }
    }
  }
  JOINT LowerBack
  {
    OFFSET 0 0 0
    CHANNELS 6 Xposition Yposition Zposition Zrotation Xrotation Yrotation
    JOINT Spine
    {
      OFFSET 0.0282699 2.03559 0
      CHANNELS 6 Xposition Yposition Zposition Zrotation Xrotation Yrotation
      JOINT Spine1
      {
        OFFSET 0.05672 2.04885 -0.04275
        CHANNELS 6 Xposition Yposition Zposition Zrotation Xrotation Yrotation
        JOINT Neck
        {
          OFFSET 0 0 0
          CHANNELS 6 Xposition Yposition Zposition Zrotation Xrotation Yrotation
          JOINT Neck1
          {
            OFFSET -0.05417 1.74624 0.17202
            CHANNELS 6 Xposition Yposition Zposition Zrotation Xrotation Yrotation
            JOINT Head
            {
              OFFSET 0.10407 1.76136 -0.12397
              CHANNELS 6 Xposition Yposition Zposition Zrotation Xrotation Yrotation
              End Site
              {
                OFFSET 0 0 0
              }
            }
          }
        }
        JOINT LeftShoulder
        {
          OFFSET 0 0 0
          CHANNELS 6 Xposition Yposition Zposition Zrotation Xrotation Yrotation
          JOINT LeftArm
          {
            OFFSET 3.36241 1.20089 -0.311211
            CHANNELS 6 Xposition Yposition Zposition Zrotation Xrotation Yrotation
            JOINT LeftForeArm
            {
              OFFSET 4.983 0.000197398 0.000166057
              CHANNELS 6 Xposition Yposition Zposition Zrotation Xrotation Yrotation
              JOINT LeftHand
              {
                OFFSET 3.48356 0 1.87849e-05
                CHANNELS 6 Xposition Yposition Zposition Zrotation Xrotation Yrotation
                JOINT LeftFingerBase
                {
                  OFFSET 0 0 0
                  CHANNELS 6 Xposition Yposition Zposition Zrotation Xrotation Yrotation
                  JOINT LeftHandIndex1
                  {
                    OFFSET 0.71526 0 0
                    CHANNELS 6 Xposition Yposition Zposition Zrotation Xrotation Yrotation
                    End Site
                    {
                      OFFSET 0 0 0
                    }
                  }
                }
                JOINT LThumb
                {
                  OFFSET 0 0 0
                  CHANNELS 6 Xposition Yposition Zposition Zrotation Xrotation Yrotation
                  End Site
                  {
                    OFFSET 0 0 0
                  }
                }
              }
            }
          }
        }
        JOINT RightShoulder
        {
          OFFSET 0 0 0
          CHANNELS 6 Xposition Yposition Zposition Zrotation Xrotation Yrotation
          JOINT RightArm
          {
            OFFSET -3.1366 1.37405 -0.404651
            CHANNELS 6 Xposition Yposition Zposition Zrotation Xrotation Yrotation
            JOINT RightForeArm
            {
              OFFSET -5.2419 -5.8808e-05 -0.000165864
              CHANNELS 6 Xposition Yposition Zposition Zrotation Xrotation Yrotation
              JOINT RightHand
              {
                OFFSET -3.44417 0 -2.00002e-05
                CHANNELS 6 Xposition Yposition Zposition Zrotation Xrotation Yrotation
                JOINT RightFingerBase
                {
                  OFFSET 0 0 0
                  CHANNELS 6 Xposition Yposition Zposition Zrotation Xrotation Yrotation
                  JOINT RightHandIndex1
                  {
                    OFFSET -0.62253 0 0
                    CHANNELS 6 Xposition Yposition Zposition Zrotation Xrotation Yrotation
                    End Site
                    {
                      OFFSET 0 0 0
                    }
                  }
                }
                JOINT RThumb
                {
                  OFFSET 0 0 0
                  CHANNELS 6 Xposition Yposition Zposition Zrotation Xrotation Yrotation
                  End Site
                  {
                    OFFSET 0 0 0
                  }
                }
              }
            }
          }
        }
      }
    }
  }
}
MOTION
Frames:	7
Frame Time:	0.00833333
-0.0744754 2.09617 -0.0580298 0.788616 -2.32954 2.03168 0 0 0 1.61513e-16 7.95139e-16 -7.95139e-16 1.36306 -1.79463 5.90225e-08 -12.6796 -3.12354 9.08063 2.44809 -6.72613 -5.40071e-05 -0.450998 9.17708 -1.56209 2.5622 -7.03959 -1.93983e-05 -6.6204 -4.7215 -1.74578 0.15764 -0.43311 2.32255 5.2181e-15 0 -1.59028e-15 0 0 0 1.61513e-16 7.95139e-16 -7.95139e-16 -1.30552 -1.79463 -1.06387e-08 17.862 -12.6054 -8.30217 -2.54244 -6.98559 0.000516065 2.47652 25.8034 -8.45237 -2.56826 -7.05622 4.54751e-05 -0.860234 -14.6977 5.11498 -0.16473 -0.45259 2.36315 -3.97569e-15 -3.97569e-16 -0 0 0 0 1.61513e-16 7.95139e-16 -7.95139e-16 0.02827 2.03559 4.29406e-07 0.674626 3.33886 0.555944 0.05672 2.04885 -0.04275 -3.16813e-16 1.98785e-16 -0 0 0 0 -3.16813e-16 1.98785e-16 -0 -0.05417 1.74624 0.17202 0.0765031 1.54598 -0.2781 0.10407 1.76136 -0.12397 -1.2424e-17 3.97569e-16 -0 0 0 0 -3.16813e-16 1.98785e-16 -0 3.36241 1.20089 -0.31121 -81.9142 6.23259 5.48279 4.983 0.000204677 0.000103676 0.385408 -1.36918 -30.5122 3.48356 5.37641e-06 -2.52937e-05 8.3596e-05 1.19271e-15 0.000416622 0 0 0 3.97569e-16 -1.98785e-15 -3.18055e-15 0.71526 -8.88178e-16 0 -1.19271e-15 -1.98785e-15 -0 0 0 0 3.97569e-16 -1.98785e-15 -3.18055e-15 0 0 0 -3.16813e-16 1.98785e-16 -0 -3.1366 1.37405 -0.404649 82.6923 24.6027 -6.35903 -5.2419 0.000248171 2.32145e-05 -0.524423 -1.14276 27.0744 -3.44417 4.99347e-06 -2.44323e-05 -8.69031e-05 0 -0.000411039 0 0 0 -1.59028e-15 0 -6.36111e-15 -0.62253 0 0 1.76556e-31 -3.18055e-15 3.18055e-15 0 0 0 -1.59028e-15 0 -6.36111e-15 
-0.0745526 2.09599 -0.0581613 0.790172 -2.33369 2.03531 0 0 0 -2.23633e-16 0 7.95139e-16 1.36306 -1.79463 5.90225e-08 -12.6668 -3.13169 9.09609 2.44809 -6.72613 -5.40071e-05 -0.449582 9.19125 -1.56586 2.5622 -7.03959 -1.93983e-05 -6.63177 -4.72549 -1.7467 0.15764 -0.43311 2.32255 2.03754e-15 -3.97569e-16 -0 0 0 0 -2.23633e-16 0 7.95139e-16 -1.30552 -1.79463 -1.06387e-08 17.8561 -12.6261 -8.31825 -2.54244 -6.98559 0.000516065 2.48234 25.8393 -8.46504 -2.56826 -7.05622 4.54751e-05 -0.862463 -14.7151 5.12106 -0.16473 -0.45259 2.36315 -1.3418e-15 -3.97569e-16 -0 0 0 0 -2.23633e-16 0 7.95139e-16 0.02827 2.03559 4.29406e-07 0.675772 3.34482 0.55694 0.05672 2.04885 -0.04275 -1.18028e-16 -1.98785e-16 -0 0 0 0 -1.05604e-16 0 -0 -0.05417 1.74624 0.17202 0.0766532 1.54874 -0.278598 0.10407 1.76136 -0.12397 3.72721e-17 0 -0 0 0 0 -1.05604e-16 0 -0 3.36241 1.20089 -0.31121 -82.0694 6.24371 5.49258 4.983 0.000204677 0.000103676 0.3849 -1.37118 -30.5667 3.48356 5.37641e-06 -2.52937e-05 8.42697e-05 0 0.000415078 0 0 0 -3.18055e-15 0 -0 0.71526 8.88178e-16 0 2.20695e-32 -3.97569e-16 3.18055e-15 0 0 0 -3.18055e-15 0 -0 0 0 0 -1.05604e-16 0 -0 -3.1366 1.37405 -0.404649 82.8479 24.6467 -6.36989 -5.2419 0.000248171 2.32145e-05 -0.524395 -1.14448 27.1228 -3.44417 4.99347e-06 -2.44323e-05 -8.84677e-05 -6.36111e-15 -0.000409812 0 0 0 1.59028e-15 3.18055e-15 -3.18055e-15 -0.62253 0 2.22045e-16 0 0 -3.18055e-15 0 0 0 1.59028e-15 3.18055e-15 -3.18055e-15 
-0.0747225 2.09558 -0.0584504 0.793597 -2.34283 2.04331 0 0 0 -1.2424e-16 3.97569e-16 -7.95139e-16 1.36306 -1.79463 5.90225e-08 -12.6386 -3.14959 9.13011 2.44809 -6.72613 -5.40071e-05 -0.44646 9.22243 -1.57416 2.5622 -7.03959 -1.93983e-05 -6.65677 -4.73427 -1.74873 0.15764 -0.43311 2.32255 1.44119e-15 0 -3.18055e-15 0 0 0 -1.2424e-16 3.97569e-16 -7.95139e-16 -1.30552 -1.79463 -1.06387e-08 17.8431 -12.6717 -8.35362 -2.54244 -6.98559 0.000516065 2.49522 25.9181 -8.49294 -2.56826 -7.05622 4.54751e-05 -0.867353 -14.7534 5.13446 -0.16473 -0.45259 2.36315 -2.93207e-15 0 1.59028e-15 0 0 0 -1.2424e-16 3.97569e-16 -7.95139e-16 0.02827 2.03559 4.29406e-07 0.678291 3.35793 0.559131 0.05672 2.04885 -0.04275 1.2424e-16 0 1.19271e-15 0 0 0 3.10601e-16 0 1.19271e-15 -0.05417 1.74624 0.17202 0.0769837 1.55482 -0.279691 0.10407 1.76136 -0.12397 6.95746e-16 -1.19271e-15 -3.97569e-16 0 0 0 3.10601e-16 0 1.19271e-15 3.36241 1.20089 -0.31121 -82.4108 6.26817 5.51412 4.983 0.000204677 0.000103676 0.383767 -1.37556 -30.6866 3.48356 5.37641e-06 -2.52937e-05 8.57518e-05 -3.97569e-16 0.00041168 0 0 0 -1.59028e-15 2.38542e-15 -0 0.71526 0 1.11022e-16 -4.77083e-15 7.95139e-16 3.18055e-15 0 0 0 -1.59028e-15 2.38542e-15 -0 0 0 0 3.10601e-16 0 1.19271e-15 -3.1366 1.37405 -0.404649 83.1903 24.7432 -6.39383 -5.2419 0.000248171 2.32145e-05 -0.524324 -1.14826 27.2292 -3.44417 4.99347e-06 -2.44323e-05 -9.19096e-05 6.36111e-15 -0.000407111 0 0 0 -3.18055e-15 0 6.36111e-15 -0.62253 0 -2.22045e-16 -0 0 3.18055e-15 0 0 0 -3.18055e-15 0 6.36111e-15 
-0.0748924 2.09517 -0.0587395 0.797025 -2.35197 2.0513 0 0 0 6.21202e-17 -7.95139e-16 7.95139e-16 1.36306 -1.79463 5.90225e-08 -12.6104 -3.1675 9.16413 2.44809 -6.72613 -5.40071e-05 -0.443329 9.25361 -1.58247 2.5622 -7.03959 -1.93983e-05 -6.68177 -4.74304 -1.75075 0.15764 -0.43311 2.32255 1.49089e-16 -7.95139e-16 -0 0 0 0 6.21202e-17 -7.95139e-16 7.95139e-16 -1.30552 -1.79463 -1.06387e-08 17.8301 -12.7174 -8.38902 -2.54244 -6.98559 0.000516065 2.50819 25.997 -8.5209 -2.56826 -7.05622 4.54751e-05 -0.872224 -14.7918 5.14786 -0.16473 -0.45259 2.36315 -6.11263e-15 0 -0 0 0 0 6.21202e-17 -7.95139e-16 7.95139e-16 0.02827 2.03559 4.29406e-07 0.680809 3.37103 0.561323 0.05672 2.04885 -0.04275 3.91357e-16 -3.97569e-16 -0 0 0 0 1.92573e-16 -1.98785e-16 3.97569e-16 -0.05417 1.74624 0.17202 0.0773144 1.56089 -0.280785 0.10407 1.76136 -0.12397 -2.36057e-16 -3.97569e-16 -3.97569e-16 0 0 0 1.92573e-16 -1.98785e-16 3.97569e-16 3.36241 1.20089 -0.31121 -82.7522 6.29263 5.53566 4.983 0.000204677 0.000103676 0.382611 -1.37992 -30.8065 3.48356 5.37641e-06 -2.52937e-05 8.72339e-05 -7.95139e-16 0.000408282 0 0 0 -1.98785e-16 1.98785e-15 -0 0.71526 -8.88178e-16 -1.66533e-16 -3.97569e-16 7.95139e-16 3.18055e-15 0 0 0 -1.98785e-16 1.98785e-15 -0 0 0 0 1.92573e-16 -1.98785e-16 3.97569e-16 -3.1366 1.37405 -0.404649 83.5328 24.8398 -6.41783 -5.2419 0.000248171 2.32145e-05 -0.524236 -1.15203 27.3356 -3.44417 4.99347e-06 -2.44323e-05 -9.53516e-05 0 -0.00040441 0 0 0 -0 0 3.18055e-15 -0.62253 4.44089e-16 -2.22045e-16 0 0 -3.18055e-15 0 0 0 -0 0 3.18055e-15 
-0.0749696 2.09499 -0.0588709 0.798584 -2.35613 2.05494 0 0 0 2.48481e-17 3.97569e-16 -3.97569e-16 1.36306 -1.79463 5.90225e-08 -12.5976 -3.17563 9.1796 2.44809 -6.72613 -5.40071e-05 -0.441903 9.26779 -1.58624 2.5622 -7.03959 -1.93983e-05 -6.69313 -4.74703 -1.75167 0.15764 -0.43311 2.32255 6.26172e-15 1.19271e-15 1.59028e-15 0 0 0 2.48481e-17 3.97569e-16 -3.97569e-16 -1.30552 -1.79463 -1.06387e-08 17.8241 -12.7381 -8.40511 -2.54244 -6.98559 0.000516065 2.51411 26.0328 -8.53363 -2.56826 -7.05622 4.54751e-05 -0.874433 -14.8092 5.15396 -0.16473 -0.45259 2.36315 4.96962e-15 -7.95139e-16 -1.59028e-15 0 0 0 2.48481e-17 3.97569e-16 -3.97569e-16 0.02827 2.03559 4.29406e-07 0.681953 3.37699 0.562319 0.05672 2.04885 -0.04275 0 0 -7.95139e-16 0 0 0 1.2424e-17 0 -3.97569e-16 -0.05417 1.74624 0.17202 0.0774648 1.56365 -0.281282 0.10407 1.76136 -0.12397 -1.11816e-16 0 -0 0 0 0 1.2424e-17 0 -3.97569e-16 3.36241 1.20089 -0.31121 -82.9074 6.30375 5.54546 4.983 0.000204677 0.000103676 0.382079 -1.38189 -30.861 3.48356 5.37641e-06 -2.52937e-05 8.79076e-05 -7.95139e-16 0.000406737 0 0 0 -3.97569e-16 -7.95139e-16 -0 0.71526 0 5.55112e-17 -3.97569e-16 -1.19271e-15 -0 0 0 0 -3.97569e-16 -7.95139e-16 -0 0 0 0 1.2424e-17 0 -3.97569e-16 -3.1366 1.37405 -0.404649 83.6885 24.8837 -6.42875 -5.2419 0.000248171 2.32145e-05 -0.52419 -1.15374 27.3839 -3.44417 4.99347e-06 -2.44323e-05 -9.69161e-05 6.36111e-15 -0.000403183 0 0 0 1.59028e-15 -3.18055e-15 -0 -0.62253 0 -4.44089e-16 1.59028e-15 0 -3.18055e-15 0 0 0 1.59028e-15 -3.18055e-15 -0 
-0.0748924 2.09517 -0.0587395 0.797025 -2.35197 2.0513 0 0 0 6.21202e-17 -7.95139e-16 7.95139e-16 1.36306 -1.79463 5.90225e-08 -12.6104 -3.1675 9.16413 2.44809 -6.72613 -5.40071e-05 -0.443329 9.25361 -1.58247 2.5622 -7.03959 -1.93983e-05 -6.68177 -4.74304 -1.75075 0.15764 -0.43311 2.32255 1.49089e-16 -7.95139e-16 -0 0 0 0 6.21202e-17 -7.95139e-16 7.95139e-16 -1.30552 -1.79463 -1.06387e-08 17.8301 -12.7174 -8.38902 -2.54244 -6.98559 0.000516065 2.50819 25.997 -8.5209 -2.56826 -7.05622 4.54751e-05 -0.872224 -14.7918 5.14786 -0.16473 -0.45259 2.36315 -6.11263e-15 0 -0 0 0 0 6.21202e-17 -7.95139e-16 7.95139e-16 0.02827 2.03559 4.29406e-07 0.680809 3.37103 0.561323 0.05672 2.04885 -0.04275 3.91357e-16 -3.97569e-16 -0 0 0 0 1.92573e-16 -1.98785e-16 3.97569e-16 -0.05417 1.74624 0.17202 0.0773144 1.56089 -0.280785 0.10407 1.76136 -0.12397 -2.36057e-16 -3.97569e-16 -3.97569e-16 0 0 0 1.92573e-16 -1.98785e-16 3.97569e-16 3.36241 1.20089 -0.31121 -82.7522 6.29263 5.53566 4.983 0.000204677 0.000103676 0.382611 -1.37992 -30.8065 3.48356 5.37641e-06 -2.52937e-05 8.72339e-05 -7.95139e-16 0.000408282 0 0 0 -1.98785e-16 1.98785e-15 -0 0.71526 -8.88178e-16 -1.66533e-16 -3.97569e-16 7.95139e-16 3.18055e-15 0 0 0 -1.98785e-16 1.98785e-15 -0 0 0 0 1.92573e-16 -1.98785e-16 3.97569e-16 -3.1366 1.37405 -0.404649 83.5328 24.8398 -6.41783 -5.2419 0.000248171 2.32145e-05 -0.524236 -1.15203 27.3356 -3.44417 4.99347e-06 -2.44323e-05 -9.53516e-05 0 -0.00040441 0 0 0 -0 0 3.18055e-15 -0.62253 4.44089e-16 -2.22045e-16 0 0 -3.18055e-15 0 0 0 -0 0 3.18055e-15 
-0.0747225 2.09558 -0.0584504 0.793597 -2.34283 2.04331 0 0 0 -1.2424e-16 3.97569e-16 -7.95139e-16 1.36306 -1.79463 5.90225e-08 -12.6386 -3.14959 9.13011 2.44809 -6.72613 -5.40071e-05 -0.44646 9.22243 -1.57416 2.5622 -7.03959 -1.93983e-05 -6.65677 -4.73427 -1.74873 0.15764 -0.43311 2.32255 1.44119e-15 0 -3.18055e-15 0 0 0 -1.2424e-16 3.97569e-16 -7.95139e-16 -1.30552 -1.79463 -1.06387e-08 17.8431 -12.6717 -8.35362 -2.54244 -6.98559 0.000516065 2.49522 25.9181 -8.49294 -2.56826 -7.05622 4.54751e-05 -0.867353 -14.7534 5.13446 -0.16473 -0.45259 2.36315 -2.93207e-15 0 1.59028e-15 0 0 0 -1.2424e-16 3.97569e-16 -7.95139e-16 0.02827 2.03559 4.29406e-07 0.678291 3.35793 0.559131 0.05672 2.04885 -0.04275 1.2424e-16 0 1.19271e-15 0 0 0 3.10601e-16 0 1.19271e-15 -0.05417 1.74624 0.17202 0.0769837 1.55482 -0.279691 0.10407 1.76136 -0.12397 6.95746e-16 -1.19271e-15 -3.97569e-16 0 0 0 3.10601e-16 0 1.19271e-15 3.36241 1.20089 -0.31121 -82.4108 6.26817 5.51412 4.983 0.000204677 0.000103676 0.383767 -1.37556 -30.6866 3.48356 5.37641e-06 -2.52937e-05 8.57518e-05 -3.97569e-16 0.00041168 0 0 0 -1.59028e-15 2.38542e-15 -0 0.71526 0 1.11022e-16 -4.77083e-15 7.95139e-16 3.18055e-15 0 0 0 -1.59028e-15 2.38542e-15 -0 0 0 0 3.10601e-16 0 1.19271e-15 -3.1366 1.37405 -0.404649 83.1903 24.7432 -6.39383 -5.2419 0.000248171 2.32145e-05 -0.524324 -1.14826 27.2292 -3.44417 4.99347e-06 -2.44323e-05 -9.19096e-05 6.36111e-15 -0.000407111 0 0 0 -3.18055e-15 0 6.36111e-15 -0.62253 0 -2.22045e-16 -0 0 3.18055e-15 0 0 0 -3.18055e-15 0 6.36111e-15 
